<?xml version="1.0" encoding="iso-8859-1"?>
<!-- Generator: Adobe Illustrator 19.0.0, SVG Export Plug-In . SVG Version: 6.00 Build 0)  -->
<svg version="1.1" id="Layer_1" xmlns="http://www.w3.org/2000/svg" xmlns:xlink="http://www.w3.org/1999/xlink" x="0px" y="0px"
	 viewBox="0 0 512 512" style="enable-background:new 0 0 512 512;" xml:space="preserve">
<path style="fill:#3C1146;" d="M452.248,128.091c-0.008,0-0.014,0-0.021,0l-392.495-0.54c-8.446-0.012-15.283-6.868-15.271-15.313
	c0.012-8.438,6.855-15.271,15.292-15.271c0.006,0,0.014,0,0.021,0l392.495,0.54c8.444,0.012,15.283,6.868,15.271,15.313
	C467.527,121.259,460.683,128.091,452.248,128.091z"/>
<path style="fill:#D4A8B4;" d="M426.114,112.573H85.886l23.111-73.877c4.453-13.942,17.41-23.404,32.044-23.404h229.916
	c14.636,0,27.593,9.463,32.046,23.404L426.114,112.573z"/>
<g>
	<path style="fill:#3C1146;" d="M426.143,127.865c-0.008,0-0.018,0-0.031,0H85.886c-4.866,0-9.44-2.315-12.322-6.236
		c-2.881-3.921-3.725-8.978-2.272-13.622l23.111-73.878C100.934,13.68,119.666,0,141.041,0h229.914
		c21.377,0,40.109,13.682,46.611,34.044l22.842,73.01c0.664,1.713,1.026,3.572,1.026,5.519
		C441.435,121.019,434.59,127.865,426.143,127.865z M106.693,97.281h298.615l-16.899-54.019
		c-2.412-7.548-9.435-12.679-17.451-12.679H141.041c-8.016,0-15.04,5.13-17.479,12.766L106.693,97.281z"/>
	<path style="fill:#3C1146;" d="M367.614,512h-223.23c-23.034,0-42.512-17.988-44.342-40.95L71.598,114.015
		c-0.671-8.42,5.609-15.787,14.029-16.459c8.453-0.656,15.789,5.611,16.459,14.029l28.446,357.036
		c0.572,7.175,6.658,12.795,13.854,12.795h223.23c7.196,0,13.283-5.62,13.854-12.795l20.326-255.118
		c0.67-8.418,8.033-14.694,16.459-14.029c8.42,0.67,14.7,8.039,14.03,16.459l-20.326,255.118
		C410.126,494.014,390.647,512,367.614,512z"/>
</g>
<path style="fill:#D4A8B4;" d="M77.312,214.717L90.41,379.105h331.179l13.098-164.388H77.312z M279.183,320.094
	c-15.616,15.616-38.653,17.896-51.457,5.092c-12.804-12.804-10.524-35.841,5.092-51.457s38.653-17.896,51.457-5.092
	C297.077,281.44,294.797,304.478,279.183,320.094z"/>
<path style="fill:#3C1146;" d="M421.589,394.397H90.411c-7.975,0-14.61-6.127-15.243-14.078L62.071,215.931
	c-0.339-4.254,1.115-8.455,4.01-11.59c2.895-3.135,6.969-4.916,11.235-4.916h357.374c4.266,0,8.339,1.783,11.235,4.918
	c2.895,3.133,4.349,7.336,4.01,11.59l-13.098,164.388C436.2,388.268,429.563,394.397,421.589,394.397z M104.532,363.814h302.933
	l10.663-133.804H93.872L104.532,363.814z M248.811,348.768c-12.338,0-23.666-4.534-31.901-12.769
	c-9.354-9.354-13.916-22.839-12.515-36.993c1.309-13.228,7.562-26.045,17.609-36.09c11.35-11.35,26.36-17.861,41.183-17.861
	c12.336,0,23.667,4.534,31.9,12.769c18.743,18.745,16.46,51.529-5.092,73.083C278.643,342.256,263.634,348.768,248.811,348.768z
	 M263.187,275.639c-6.67,0-13.981,3.328-19.557,8.903c-4.987,4.987-8.193,11.356-8.799,17.477
	c-0.291,2.939-0.196,8.452,3.707,12.354c3.15,3.15,7.325,3.811,10.273,3.811c6.67,0,13.983-3.328,19.557-8.903
	c9.464-9.464,11.798-23.126,5.092-29.831C270.312,276.299,266.136,275.639,263.187,275.639z"/>
<g>
</g>
<g>
</g>
<g>
</g>
<g>
</g>
<g>
</g>
<g>
</g>
<g>
</g>
<g>
</g>
<g>
</g>
<g>
</g>
<g>
</g>
<g>
</g>
<g>
</g>
<g>
</g>
<g>
</g>
</svg>
